<svg width="69" height="77" viewBox="0 0 69 77" fill="none" xmlns="http://www.w3.org/2000/svg">
<g clip-path="url(#clip0)">
<path d="M28.9 20.8C29.2 20.9 29.4 21 29.7 20.9C30 20.8 30.2 20.7 30.3 20.4C30.4 20.2 30.5 19.9 30.4 19.6C30.2 18.8 30.1 18.1 30.1 17.3C30.1 15 30.9 13 32.5 11.4C34.1 9.79998 36 9.09998 38.3 8.99998C40.6 8.99998 42.6 9.79998 44.2 11.4C45.8 13 46.6 15 46.6 17.3C46.6 18.2 46.5 19 46.2 19.8C46.1 20.1 46.2 20.3 46.3 20.6C46.4 20.8 46.6 21 46.9 21.1L47.2 21.2C47.6 21.2 48 21 48.2 20.5C48.5 19.5 48.6 18.5 48.6 17.4C48.5 14.5 47.5 12.1 45.6 10.1C43.7 8.09998 41.2 7.09998 38.3 7.09998C35.4 7.19998 33 8.19998 31 10.1C29 12 28 14.5 28 17.4C28 18.4 28.1 19.3 28.4 20.2C28.4 20.4 28.6 20.7 28.9 20.8Z" fill="#6A4B9F"/>
<path d="M21 34.7C20.3 34.7 19.7 35 19.3 35.4C18.9 35.8 18.6 36.3 18.6 37C18.6 37.7 18.8 38.2 19.3 38.6C19.8 39 20.3 39.2 21 39.2C21.7 39.2 22.3 39 22.7 38.6C23.1 38.2 23.4 37.6 23.4 37C23.4 36.4 23.2 35.8 22.7 35.4C22.2 34.9 21.7 34.7 21 34.7Z" fill="#6A4B9F"/>
<path d="M54.3 27.7C49.4 24 43.5 22 36.5 21.9C34.3 21.9 32.2 22.2 30.1 22.7C28 23.2 26 23.9 24.1 24.9C22.8 24 21.5 23.4 20.2 22.9C18.9 22.5 17.8 22.3 16.9 22.3C16.1 22.3 15.4 22.5 15 22.7C14.5 22.9 14.2 23.2 14 23.5C13.4 24.3 13.2 25.3 13.5 26.5C13.8 27.7 14.4 29 15.3 30.6C14.8 31.2 14.3 31.9 13.9 32.7C13.5 33.5 12.9 34.2 12.6 35L12.4 35.6C11.7 35.8 10.8 35.9 9.69999 35.9H9.49999C8.19999 35.9 7.29999 36.4 6.59999 37.5C5.99999 38.9 5.79999 40.4 6.19999 42C6.59999 43.6 7.09999 44.9 7.59999 46C8.09999 47 9.29999 48.2 11.2 49.7C13.1 51.2 15.8 52.9 19.2 55V64.4H28.5L30.3 60.2C32.3 60.6 34.4 60.9 36.5 60.9C37.8 60.9 39.3 60.8 40.8 60.6C42.3 60.4 43.7 60.2 45.1 59.9L46.8 64.4H55.5L56.9 53.5C58.6 51.8 59.8 49.9 60.7 47.8C61.6 45.7 62 43.6 62 41.4C61.7 36 59.2 31.4 54.3 27.7ZM58.7 47.1C57.9 48.9 56.7 50.7 55.1 52.2C55.1 52.2 55 52.3 54.9 52.4L54.8 52.5L53.5 62.3H48L46.2 57.5L45.3 57.7C44 58 42.5 58.3 40.9 58.5C39.3 58.7 37.8 58.8 36.4 58.8C34.2 58.8 32 58.5 29.9 58L29.1 57.8L27.2 62.3H21.2V53.7L20.8 53.5C14 49.5 10.2 46.7 9.39999 45C8.69999 43.6 8.19999 42.4 8.09999 41.3C7.99999 40.2 8.09999 39.3 8.39999 38.6C8.69999 38.1 9.09999 37.9 9.59999 37.9H9.69999C11.2 37.9 12.5 37.7 13.4 37.3L13.8 37.2L14 36.9L14.5 35.9C14.8 35.1 15.2 34.3 15.7 33.5C16.2 32.7 16.6 32 17.1 31.6L17.8 31.1L17.4 30.4C16.6 29 16 27.8 15.6 26.9C15.2 26 15.2 25.3 15.5 25C15.8 24.6 16.3 24.5 16.9 24.5C17.7 24.5 18.7 24.8 19.9 25.2C21.1 25.6 22.3 26.2 23.4 27L23.7 27.2C24.1 27.5 24.8 28.1 25.8 29.2C26.8 30.3 27.9 31.8 29.1 33.7C29.3 34 29.6 34.2 30 34.3C30.2 34.3 30.3 34.2 30.4 34.1C30.6 34 30.8 33.8 30.9 33.5C31 33.2 31 33 30.8 32.7C29.9 31.1 29 29.8 28.1 28.8C27.2 27.8 26.5 27 25.8 26.4C27.4 25.7 29.2 25.1 31 24.7C32.8 24.3 34.7 24.1 36.5 24.1C43 24.2 48.5 26 53 29.3C57.5 32.7 59.9 36.7 60 41.5C60 43.4 59.5 45.3 58.7 47.1Z" fill="#6A4B9F"/>
</g>
<defs>
<clipPath id="clip0">
<rect x="6" y="7" width="56" height="57.3" fill="white"/>
</clipPath>
</defs>
</svg>
