<svg width="69" height="77" viewBox="0 0 69 77" fill="none" xmlns="http://www.w3.org/2000/svg">
<g clip-path="url(#clip0)">
<path d="M47.2 46.9C46.9 46.9 46.6 47 46.4 47.1C46.1 47.4 44.8 48.7 42.7 50.8L39 54.5C38.8 54.7 38.7 55 38.7 55.3C38.7 55.6 38.8 55.8 39 56C39.2 56.2 39.5 56.3 39.8 56.3C40.1 56.3 40.4 56.2 40.6 56L48 48.6C48.2 48.4 48.3 48.1 48.3 47.9C48.3 47.7 48.2 47.4 48 47.2C47.8 47 47.5 46.9 47.2 46.9Z" fill="#6A4B9F"/>
<path d="M25.6 54L28.9 50.8C29 50.6 29.1 50.3 29 50C29 49.7 28.9 49.5 28.7 49.2C28.5 49.1 28.3 49 28 49C27.7 49 27.5 49.1 27.3 49.3L24 52.6L20.8 49.3C20.6 49.1 20.3 49 20 49C19.7 49 19.5 49.1 19.3 49.3C19.1 49.5 19 49.7 19 50C19 50.3 19.1 50.5 19.3 50.8L22.6 54L19.3 57.3C19.1 57.5 19 57.8 19 58C19 58.3 19.1 58.5 19.3 58.7C19.5 59 19.7 59.1 20 59.1C20.3 59.1 20.6 59 20.8 58.8L24 55.6L27.3 58.8C27.5 59 27.8 59.1 28.1 59.1C28.4 59.1 28.6 59 28.9 58.8C29.1 58.6 29.2 58.3 29.2 58.1C29.2 57.8 29.1 57.6 28.9 57.4L25.6 54Z" fill="#6A4B9F"/>
<path d="M38.4 34.7H48.6C48.9 34.7 49.1 34.6 49.3 34.4C49.5 34.2 49.6 33.9 49.6 33.6C49.6 33.3 49.5 33.1 49.3 32.9C49.1 32.7 48.8 32.6 48.5 32.6C48.1 32.6 46.4 32.6 43.4 32.6H38.3C38 32.6 37.8 32.7 37.6 32.9C37.4 33.1 37.3 33.3 37.3 33.6C37.3 33.9 37.4 34.2 37.6 34.4C37.9 34.6 38.1 34.7 38.4 34.7Z" fill="#6A4B9F"/>
<path d="M18.6 34.5H23V38.8C23 39.1 23.1 39.4 23.3 39.6C23.5 39.8 23.8 39.9 24.1 39.9C24.4 39.9 24.6 39.8 24.9 39.6C25.1 39.4 25.2 39.1 25.2 38.8V34.5H29.6C29.9 34.5 30.1 34.4 30.3 34.2C30.5 34 30.6 33.7 30.6 33.4C30.6 33.1 30.5 32.9 30.3 32.6C30.1 32.4 29.9 32.3 29.6 32.3C29.4 32.3 28.7 32.3 27.4 32.3H25.2V27.9C25.2 27.6 25.1 27.4 24.9 27.2C24.7 27 24.4 26.9 24.1 26.9C23.8 26.9 23.5 27 23.3 27.2C23.1 27.4 23 27.6 23 27.9V32.3H18.6C18.3 32.3 18 32.4 17.8 32.6C17.6 32.8 17.5 33.1 17.5 33.4C17.5 33.7 17.6 34 17.8 34.2C18.1 34.4 18.4 34.5 18.6 34.5Z" fill="#6A4B9F"/>
<path d="M49.2 16H42C41.7 16 41.4 16.1 41.2 16.3C41.1 16.5 41 16.8 41 17.1C41 17.4 41.1 17.7 41.3 17.9C41.5 18.1 41.7 18.2 42.1 18.2C42.4 18.2 43.6 18.2 45.7 18.2H49.3C49.6 18.2 49.8 18.1 50.1 17.9C50.3 17.7 50.4 17.4 50.4 17.1C50.4 16.8 50.3 16.6 50.1 16.3C49.8 16.1 49.5 16 49.2 16Z" fill="#6A4B9F"/>
<path d="M52.6 12.8C51.5 11.6 50.1 11 48.4 11C47.2 11 42.3 11 33.7 11H19C17.3 11 15.9 11.6 14.7 12.8C13.6 13.9 13 15.3 13 17V62.2C13 63.9 13.6 65.3 14.7 66.5C15.8 67.6 17.2 68.2 19 68.3H48.4C50.1 68.3 51.5 67.7 52.7 66.5C53.8 65.4 54.4 63.9 54.5 62.2V17C54.4 15.3 53.8 13.9 52.6 12.8ZM52.3 62.2C52.2 63.3 51.8 64.2 51.1 65C50.4 65.7 49.4 66.1 48.3 66.1C47.1 66.1 42.2 66.1 33.6 66.1H19C17.9 66.1 17 65.7 16.3 65C15.6 64.3 15.2 63.4 15.2 62.2V23.4H52.4V62.2H52.3ZM52.3 21.3H15.1V17C15.1 15.9 15.5 15 16.2 14.2C16.9 13.4 17.9 13.2 19 13.1C20.2 13.1 25.1 13.1 33.7 13.1H48.4C49.5 13.1 50.4 13.5 51.1 14.2C51.9 15 52.3 15.9 52.3 17V21.3Z" fill="#6A4B9F"/>
</g>
<defs>
<clipPath id="clip0">
<rect x="13" y="11" width="41.4" height="57.3" fill="white"/>
</clipPath>
</defs>
</svg>
