<svg width="69" height="77" viewBox="0 0 69 77" fill="none" xmlns="http://www.w3.org/2000/svg">
<g clip-path="url(#clip0)">
<path d="M17 52.8C17.4 52.8 17.7 52.7 17.9 52.4L30.9 35.1L39.2 42.5C39.6 42.8 40 42.9 40.4 42.9C40.8 42.9 41.2 42.7 41.6 42.3L53.3 28C53.5 27.8 53.6 27.5 53.5 27.2C53.5 26.9 53.3 26.7 53.1 26.5C52.9 26.3 52.6 26.2 52.3 26.3C52 26.3 51.8 26.4 51.5 26.6L40 40.6L31.7 33.1C31.3 32.8 30.9 32.7 30.5 32.7C30.1 32.7 29.7 32.9 29.3 33.3L16.2 51.1C16 51.4 15.9 51.6 16 51.9C16.1 52.2 16.2 52.4 16.4 52.7C16.6 52.8 16.8 52.8 17 52.8Z" fill="#6A4B9F"/>
<path d="M49.2 25.8C49.4 26 49.7 26.1 50 26.1C50.3 26.1 50.5 26 50.7 25.7C50.9 25.5 51 25.2 51 24.9C51 24.6 50.9 24.4 50.6 24.2L49 22.9L59 19.8L57.3 29.8L55.8 28.5C55.6 28.3 55.3 28.2 55 28.2C54.7 28.2 54.4 28.3 54.2 28.6C54.1 28.8 54 29 54 29.3C54 29.6 54.1 29.8 54.4 30L56.6 31.9C56.9 32.2 57.3 32.3 57.7 32.3C57.9 32.3 58.1 32.3 58.3 32.2C58.9 31.9 59.3 31.5 59.4 30.9L61.4 19.3C61.5 18.7 61.3 18.2 60.8 17.8C60.3 17.4 59.8 17.3 59.1 17.4L47.5 21.2C47.2 21.3 46.9 21.5 46.7 21.7C46.5 21.9 46.4 22.2 46.3 22.5C46.2 23.1 46.4 23.7 46.9 24.2L49.2 25.8Z" fill="#6A4B9F"/>
<path d="M64 59.7C63.8 59.5 63.6 59.4 63.3 59.4C61.1 59.4 52.5 59.4 37.4 59.4H11.5C10.8 59.4 10.3 59.2 9.8 58.7C9.4 58.3 9.1 57.7 9.1 57V14C9.1 13.7 9 13.5 8.8 13.2C8.6 13.1 8.4 13 8.1 13C7.8 13 7.5 13.1 7.3 13.3C7.1 13.5 7 13.8 7 14.1V57.1C7 58.4 7.5 59.4 8.3 60.3C9.1 61.2 10.2 61.6 11.5 61.6H63.2C63.5 61.6 63.7 61.5 64 61.3C64.2 61.1 64.3 60.8 64.3 60.5C64.3 60.1 64.2 59.9 64 59.7Z" fill="#6A4B9F"/>
</g>
<defs>
<clipPath id="clip0">
<rect x="7" y="13" width="57.3" height="48.5" fill="white"/>
</clipPath>
</defs>
</svg>
