<svg width="69" height="77" viewBox="0 0 69 77" fill="none" xmlns="http://www.w3.org/2000/svg">
<g clip-path="url(#clip0)">
<path d="M29.4 55.4C29.1 55.4 28.9 55.5 28.7 55.7C28.5 55.9 28.4 56.1 28.4 56.4C28.4 56.7 28.5 56.9 28.7 57.1C28.9 57.3 29.1 57.4 29.4 57.4H43C43.3 57.4 43.5 57.3 43.7 57.1C43.9 56.9 44 56.7 44 56.4C44 56.1 43.9 55.9 43.7 55.7C43.5 55.5 43.3 55.4 43 55.4H29.4Z" fill="#6A4B9F"/>
<path d="M28.7 38.5C28.9 38.7 29.1 38.8 29.4 38.8C29.8 38.8 31.6 38.8 34.7 38.8H40C40.3 38.8 40.5 38.7 40.7 38.5C40.9 38.3 41 38.1 41 37.8C41 37.5 40.9 37.3 40.7 37.1C40.5 36.9 40.3 36.8 40 36.8H29.4C29.1 36.8 28.9 36.9 28.7 37.1C28.5 37.3 28.4 37.5 28.4 37.8C28.4 38.1 28.5 38.3 28.7 38.5Z" fill="#6A4B9F"/>
<path d="M27.4 22.2C28 22.2 30.3 22.2 34.4 22.2H41.4C42.4 22.2 43.2 21.9 43.9 21.2C44.6 20.5 44.9 19.7 45 18.6V16.6C45 15.6 44.6 14.8 43.9 14.1C43.2 13.4 42.4 13.1 41.4 13H27.4C26.4 13 25.5 13.4 24.9 14.1C24.2 14.8 23.9 15.6 23.9 16.6V18.7C23.9 19.7 24.2 20.6 24.9 21.2C25.5 21.9 26.4 22.2 27.4 22.2ZM26.2 15.5C26.5 15.1 26.9 15 27.4 15H41.4C41.8 15 42.2 15.2 42.5 15.5C42.8 15.8 43 16.1 43 16.6V18.7C43 19.1 42.8 19.5 42.5 19.8C42.2 20.1 41.8 20.3 41.4 20.3H27.4C27 20.3 26.6 20.1 26.3 19.8C26 19.5 25.8 19.1 25.8 18.7V16.6H25.7C25.8 16.1 26 15.8 26.2 15.5Z" fill="#6A4B9F"/>
<path d="M48.1 47.9C48.3 47.7 48.4 47.5 48.4 47.2C48.4 46.9 48.3 46.7 48.1 46.5C47.9 46.3 47.7 46.2 47.4 46.2H29.4C29.1 46.2 28.9 46.3 28.7 46.5C28.5 46.7 28.4 46.9 28.4 47.2C28.4 47.5 28.5 47.7 28.7 47.9C28.9 48.1 29.1 48.2 29.4 48.2H47.3C47.6 48.2 47.9 48.1 48.1 47.9Z" fill="#6A4B9F"/>
<path d="M28.4 11C28.9 11 30.9 11 34.4 11H40.4C40.7 11 40.9 10.9 41.1 10.7C41.3 10.5 41.4 10.3 41.4 10C41.4 9.7 41.3 9.5 41.1 9.3C40.9 9.1 40.7 9 40.5 9H28.5C28.2 9 28 9.1 27.8 9.3C27.6 9.5 27.4 9.7 27.4 10C27.4 10.3 27.5 10.5 27.7 10.7C27.9 10.9 28.1 11 28.4 11Z" fill="#6A4B9F"/>
<path d="M24.9 35.5C24.3 34.9 23.5 34.5 22.5 34.5C21.5 34.5 20.7 34.9 20.1 35.5C19.5 36.1 19.1 36.9 19.1 37.9C19.1 38.9 19.4 39.7 20.1 40.3C20.7 41 21.5 41.3 22.5 41.3C23.5 41.3 24.3 41 24.9 40.3C25.5 39.6 25.9 38.8 25.9 37.9C25.9 36.9 25.5 36.1 24.9 35.5ZM23.5 38.8C23.2 39.1 22.9 39.2 22.5 39.2C22.1 39.2 21.8 39 21.5 38.8C21.2 38.5 21.1 38.2 21.1 37.8C21.1 37.4 21.2 37.1 21.5 36.8C21.8 36.5 22.1 36.4 22.5 36.4C22.9 36.4 23.2 36.5 23.5 36.8C23.8 37.1 23.9 37.4 23.9 37.8C23.9 38.2 23.8 38.6 23.5 38.8Z" fill="#6A4B9F"/>
<path d="M53.2 17.6C52.1 16.5 50.8 16 49.2 16C49.1 16 48.8 16 48.3 16H47.4C47.1 16 46.9 16.1 46.7 16.3C46.5 16.5 46.4 16.7 46.4 17C46.4 17.3 46.5 17.5 46.7 17.7C46.9 17.9 47.1 18 47.4 18H49.2C50.2 18 51.1 18.4 51.8 19.1C52.5 19.8 52.9 20.7 52.9 21.7V60.7C52.9 61.7 52.5 62.6 51.8 63.3C51.1 64 50.2 64.4 49.2 64.4H19.6C18.6 64.4 17.7 64 17 63.3C16.4 62.5 16 61.6 16 60.6V21.6C16 20.6 16.4 19.7 17.1 19C17.8 18.3 18.7 17.9 19.7 17.9H21C21.3 17.9 21.5 17.8 21.7 17.6C21.9 17.4 22 17.2 22 16.9C22 16.6 22 16.4 21.7 16.2C21.4 16 21.3 15.9 21 15.9H19.6C18 16 16.7 16.5 15.6 17.6C14.5 18.7 14 20 14 21.6V60.6C14 62.2 14.6 63.5 15.6 64.6C16.7 65.7 18 66.2 19.6 66.3H49.2C50.8 66.3 52.1 65.7 53.2 64.6C54.3 63.5 54.8 62.2 54.8 60.6V21.6C54.8 20 54.2 18.6 53.2 17.6Z" fill="#6A4B9F"/>
<path d="M22.5 53.1C21.5 53.1 20.7 53.4 20.1 54.1C19.5 54.8 19.1 55.6 19.1 56.5C19.1 57.5 19.4 58.2 20.1 58.9C20.7 59.5 21.5 59.9 22.5 59.9C23.5 59.9 24.3 59.6 24.9 58.9C25.5 58.2 25.9 57.5 25.9 56.5C25.9 55.5 25.6 54.7 24.9 54.1C24.3 53.5 23.5 53.1 22.5 53.1ZM23.5 57.4C23.2 57.7 22.9 57.8 22.5 57.8C22.1 57.8 21.8 57.7 21.5 57.4C21.2 57.1 21.1 56.8 21.1 56.4C21.1 56 21.2 55.7 21.5 55.4C21.8 55.1 22.1 55 22.5 55C22.9 55 23.2 55.1 23.5 55.4C23.8 55.7 23.9 56 23.9 56.4C23.9 56.8 23.8 57.2 23.5 57.4Z" fill="#6A4B9F"/>
<path d="M19.2 28.5C19.2 29.5 19.5 30.3 20.2 30.9C20.9 31.5 21.7 31.9 22.6 31.9C23.6 31.9 24.3 31.6 25 30.9C25.6 30.3 26 29.5 26 28.5C26 27.5 25.7 26.7 25 26.1C24.4 25.4 23.6 25.1 22.6 25.1C21.6 25.1 20.8 25.4 20.2 26.1C19.5 26.8 19.2 27.6 19.2 28.5ZM21.5 27.6C21.8 27.3 22.1 27.2 22.5 27.2C22.9 27.2 23.2 27.4 23.5 27.6C23.8 27.9 23.9 28.2 23.9 28.6C23.9 29 23.8 29.3 23.5 29.6C23.2 29.9 22.9 30 22.5 30C22.1 30 21.8 29.9 21.5 29.6C21.2 29.3 21.1 29 21.1 28.6C21.1 28.2 21.2 27.9 21.5 27.6Z" fill="#6A4B9F"/>
<path d="M29.4 29.6C30 29.6 32.4 29.6 36.7 29.6H44C44.3 29.6 44.5 29.5 44.7 29.3C44.9 29.1 45 28.9 45 28.6C45 28.3 44.9 28.1 44.7 27.9C44.5 27.7 44.3 27.6 44 27.6H29.4C29.1 27.6 28.9 27.7 28.7 27.9C28.5 28.1 28.4 28.3 28.4 28.6C28.4 28.9 28.5 29.1 28.7 29.3C28.9 29.5 29.1 29.6 29.4 29.6Z" fill="#6A4B9F"/>
<path d="M24.9 44.8C24.3 44.2 23.5 43.8 22.5 43.8C21.5 43.8 20.7 44.2 20.1 44.8C19.5 45.4 19.1 46.2001 19.1 47.2001C19.1 48.2001 19.4 49 20.1 49.6C20.7 50.2 21.5 50.6 22.5 50.6C23.5 50.6 24.3 50.3 24.9 49.6C25.5 48.9 25.9 48.2001 25.9 47.2001C25.9 46.2001 25.5 45.4 24.9 44.8ZM23.5 48.2001C23.2 48.5001 22.9 48.6 22.5 48.6C22.1 48.6 21.8 48.5001 21.5 48.2001C21.2 47.9001 21.1 47.6001 21.1 47.2001C21.1 46.8001 21.2 46.5001 21.5 46.2001C21.8 45.9001 22.1 45.8 22.5 45.8C22.9 45.8 23.2 45.9001 23.5 46.2001C23.8 46.5001 23.9 46.8001 23.9 47.2001C23.9 47.6001 23.8 47.9001 23.5 48.2001Z" fill="#6A4B9F"/>
</g>
<defs>
<clipPath id="clip0">
<rect x="14" y="9" width="40.9" height="57.3" fill="white"/>
</clipPath>
</defs>
</svg>
