<svg width="69" height="77" viewBox="0 0 69 77" fill="none" xmlns="http://www.w3.org/2000/svg">
<g clip-path="url(#clip0)">
<path d="M51.6 9C52.7 9 53.7 9.4 54.4 10.2C55.2 10.9 55.5 11.9 55.5 13V62.3C55.5 63.4 55.1 64.4 54.4 65.1C53.7 65.8 52.7 66.2 51.6 66.3H17C15.9 66.3 14.9 65.9 14.2 65.1C13.4 64.4 13 63.4 13 62.3V13C13 11.9 13.4 10.9 14.2 10.2C14.9 9.4 15.9 9 17 9H34.3C44.4 9 50.1 9 51.6 9ZM53.4 62.3V13C53.4 12.5 53.2 12 52.8 11.7C52.4 11.3 52 11.2 51.5 11.2H17C16.5 11.2 16 11.4 15.7 11.7C15.3 12 15.1 12.5 15.1 13V62.3C15.1 62.8 15.3 63.3 15.6 63.6C16 64 16.4 64.2 17 64.2H51.7C52.2 64.2 52.7 64 53 63.7C53.3 63.3 53.5 62.8 53.4 62.3ZM48.4 32.8C48.7 32.8 48.9 32.9 49.1 33.1C49.3 33.3 49.4 33.6 49.4 33.9C49.4 34.2 49.3 34.5 49.1 34.7C48.9 34.9 48.7 35 48.4 35H20.3C20 35 19.8 34.9 19.5 34.7C19.3 34.5 19.2 34.2 19.2 33.9C19.2 33.6 19.3 33.4 19.5 33.1C19.7 32.8 20 32.8 20.3 32.8H34.3C42.5 32.8 47.2 32.8 48.4 32.8ZM31.3 42.1C31.6 42.1 31.8 42.3 32 42.5C32.2 42.7 32.3 42.9 32.3 43.2C32.3 43.5 32.2 43.7 32 43.9C31.8 44.1 31.6 44.2 31.3 44.2H21.3C21 44.2 20.7 44.1 20.5 43.9C20.3 43.7 20.2 43.5 20.2 43.2C20.2 42.9 20.3 42.7 20.5 42.5C20.7 42.3 21 42.2 21.3 42.1H26.3C29.2 42.1 30.9 42.1 31.3 42.1ZM31.3 49C31.6 49 31.8 49.1 32 49.3C32.2 49.5 32.3 49.7 32.3 50C32.3 50.3 32.2 50.6 32 50.8C31.8 51 31.6 51.1 31.3 51.1H21.3C21 51.1 20.7 51 20.5 50.8C20.3 50.6 20.2 50.3 20.2 50C20.2 49.7 20.3 49.5 20.5 49.3C20.7 49.1 21 49.1 21.3 49H26.3C29.2 49 30.9 49 31.3 49ZM31.3 56C31.6 56 31.8 56.1 32 56.3C32.2 56.5 32.3 56.8 32.3 57.1C32.3 57.4 32.2 57.7 32 57.9C31.8 58.1 31.6 58.2 31.3 58.2H21.3C21 58.2 20.7 58.1 20.5 57.9C20.3 57.7 20.2 57.4 20.2 57.1C20.2 56.8 20.3 56.6 20.5 56.3C20.7 56 21 56 21.3 56H26.3C29.2 56 30.9 56 31.3 56ZM21.6 31C21.3 31 21 30.9 20.8 30.7C20.6 30.5 20.5 30.2 20.6 30V26.9C20.6 26.2 20.8 25.7 21.3 25.2C21.8 24.7 22.4 24.5 23.1 24.5H25.6C26.3 24.5 26.9 24.7 27.4 25.2C27.9 25.7 28.1 26.3 28.2 27V30C28.2 30.3 28 30.5 27.8 30.7C27.6 30.9 27.2 31 27 31C26.7 31 26.5 30.9 26.3 30.7C26.1 30.5 26 30.3 26 30V26.9C26 26.7 25.8 26.6 25.6 26.6H23C22.8 26.6 22.7 26.7 22.7 26.9V30C22.7 30.3 22.5 30.5 22.3 30.7C22.1 30.9 21.8 31 21.6 31ZM31.2 31C30.9 31 30.7 30.9 30.5 30.7C30.3 30.5 30.2 30.3 30.1 30V23.1C30.1 22.4 30.4 21.9 30.8 21.4C31.2 20.9 31.8 20.7 32.6 20.6H35.1C35.8 20.6 36.3 20.8 36.8 21.3C37.3 21.8 37.5 22.4 37.5 23.1V30C37.5 30.3 37.4 30.5 37.2 30.7C37 30.9 36.7 31 36.4 31C36.1 31 35.9 30.9 35.7 30.7C35.5 30.5 35.4 30.3 35.4 30V23.1C35.4 22.9 35.3 22.8 35.1 22.8H32.6C32.4 22.8 32.2 22.9 32.2 23.1V30C32.2 30.3 32.1 30.5 31.9 30.7C31.7 30.9 31.5 31 31.2 31ZM47.3 42.1C47.6 42.1 47.8 42.3 48 42.5C48.2 42.7 48.3 42.9 48.3 43.2C48.3 43.5 48.2 43.7 48 43.9C47.8 44.1 47.6 44.2 47.3 44.2H37.3C37 44.2 36.7 44.1 36.5 43.9C36.3 43.7 36.2 43.5 36.2 43.2C36.2 42.9 36.3 42.7 36.5 42.5C36.7 42.3 37 42.2 37.3 42.1H42.3C45.2 42.1 46.9 42.1 47.3 42.1ZM47.3 49C47.6 49 47.8 49.1 48 49.3C48.2 49.5 48.3 49.7 48.3 50C48.3 50.3 48.2 50.6 48 50.8C47.8 51 47.6 51.1 47.3 51.1H37.3C37 51.1 36.7 51 36.5 50.8C36.3 50.6 36.2 50.3 36.2 50C36.2 49.7 36.3 49.5 36.5 49.3C36.7 49.1 37 49 37.3 49H42.3C45.2 49 46.9 49 47.3 49ZM47.3 56C47.6 56 47.8 56.1 48 56.3C48.2 56.5 48.3 56.8 48.3 57.1C48.3 57.4 48.2 57.7 48 57.9C47.8 58.1 47.6 58.2 47.3 58.2H37.3C37 58.2 36.7 58.1 36.5 57.9C36.3 57.7 36.2 57.4 36.2 57.1C36.2 56.8 36.3 56.6 36.5 56.3C36.7 56.1 37 56 37.3 56H42.3C45.2 56 46.9 56 47.3 56ZM40.9 31C40.6 31 40.3 30.9 40.1 30.7C39.9 30.5 39.8 30.3 39.8 30V18.9C39.8 18.2 40.1 17.6 40.5 17.1C40.9 16.6 41.5 16.4 42.2 16.3H44.8C45.5 16.3 46 16.6 46.5 17C47 17.4 47.2 18 47.3 18.8V30C47.3 30.3 47.2 30.5 47 30.7C46.8 30.9 46.5 31 46.2 31C45.9 31 45.7 30.9 45.4 30.7C45.1 30.5 45.1 30.3 45.1 30V18.9C45.1 18.7 45 18.5 44.8 18.5H42.2C42 18.5 41.9 18.7 41.9 18.9V30C41.9 30.3 41.8 30.5 41.6 30.7C41.4 30.9 41.2 31 40.9 31Z" fill="#6A4B9F"/>
</g>
<defs>
<clipPath id="clip0">
<rect x="13" y="9" width="42.5" height="57.3" fill="white"/>
</clipPath>
</defs>
</svg>
