<svg width="69" height="77" viewBox="0 0 69 77" fill="none" xmlns="http://www.w3.org/2000/svg">
<g clip-path="url(#clip0)">
<path d="M54.4 64.2C54.2 64 53.5 63.0999 52.2 61.5999L50.1 58.9C49.8 58.5 49.4 58.1999 48.9 58.0999C48.4 57.9999 47.9 57.9999 47.4 58.0999L46.4 57C47.5 56 48.4 54.9 49 53.5C49.6 52.2 50 50.6999 50 49.0999C49.9 46.1999 48.9 43.7 47 41.7C45 39.7 42.6 38.7 39.7 38.7C36.8 38.8 34.3 39.8 32.4 41.7C30.5 43.7 29.5 46.0999 29.4 49.0999C29.5 51.9999 30.5 54.4 32.4 56.4C34.3 58.4 36.8 59.4 39.7 59.4C41.6 59.4 43.4 58.9 45 57.9L46 59.0999C45.8 59.4999 45.7 60 45.7 60.5C45.7 61 45.9 61.4 46.3 61.7999L50.6 67.0999C50.8 67.3999 51.1 67.5999 51.5 67.7999C51.9 68 52.2 68.0999 52.6 68.0999C53.2 68.0999 53.7 67.9 54.1 67.5C54.7 67.1 55 66.5 55.1 65.9C55 65.4 54.8 64.8 54.4 64.2ZM45.6 55.0999C44 56.6999 42 57.4999 39.6 57.5999C37.2 57.4999 35.2 56.6999 33.6 55.0999C32 53.4999 31.2 51.6 31.1 49.2C31.2 46.8 32 44.8 33.6 43.2C35.2 41.6 37.2 40.8 39.6 40.7C42 40.8 44 41.6 45.6 43.2C47.2 44.8 48 46.8 48 49.2C48 51.6 47.2 53.5999 45.6 55.0999ZM52.8 66.2C52.7 66.3 52.5 66.4 52.4 66.2999C52.3 66.2999 52.1 66.1999 52 66.0999L47.7 60.7999C47.5 60.5 47.5 60.2 47.8 60C47.9 59.9 48.1 59.9 48.2 59.9C48.3 59.9 48.5 59.9999 48.6 60.0999L52.9 65.4C53 65.7 53 66 52.8 66.2Z" fill="#6A4B9F"/>
<path d="M45.4 36C45.6 35.8 45.7 35.6 45.7 35.3C45.7 35 45.6 34.8 45.4 34.6C45.2 34.4 45 34.3 44.7 34.3H22.7C22.4 34.3 22.2 34.4 22 34.6C21.8 34.8 21.7 35 21.7 35.3C21.7 35.6 21.8 35.8 22 36C22.2 36.2 22.4 36.3 22.7 36.3H44.8C45 36.3 45.2 36.2 45.4 36Z" fill="#6A4B9F"/>
<path d="M43 62.8C41.9 62.8 37.7 62.8 30.2 62.8H17.5C17.1 62.8 16.7 62.6 16.4 62.3C16.1 62 16 61.6 15.9 61.2V14.6C15.9 14.2 16.1 13.8 16.4 13.5C16.7 13.2 17 13 17.5 13H39.4V22.6C39.4 23.2 39.7 23.7 40 24.1C40.4 24.5 40.9 24.7 41.5 24.7H52.3V57.4C52.3 57.7 52.4 57.9 52.6 58.1C52.8 58.3 53 58.4 53.3 58.4C53.6 58.4 53.8 58.3 54 58.1C54.2 57.9 54.3 57.7 54.3 57.4V24.4C54.3 23.6 54 22.9 53.5 22.4L42.9 11.8C42.3 11.3 41.7 11 40.9 11H17.5C16.5 11 15.6 11.4 15 12C14.3 12.7 14 13.5 14 14.5V61.2C14 62.2 14.3 63 15 63.7C15.7 64.4 16.5 64.7 17.5 64.7H43C43.3 64.7 43.5 64.6 43.7 64.4C43.9 64.2 44 64 44 63.7C43.9 63.1 43.6 62.8 43 62.8ZM41.4 13.1L41.6 13.2L51.2 22.8C50.8 22.8 49.2 22.8 46.4 22.8H41.6C41.5 22.8 41.4 22.7 41.4 22.6V13.1Z" fill="#6A4B9F"/>
<path d="M22.7 40.3C22.4 40.3 22.2 40.4 22 40.6C21.8 40.8 21.7 41 21.7 41.3C21.7 41.6 21.8 41.8 22 42C22.2 42.2 22.4 42.3 22.7 42.3H28C28.3 42.3 28.5 42.2 28.7 42C28.9 41.8 29 41.6 29 41.3C29 41 28.9 40.8 28.7 40.6C28.5 40.4 28.3 40.3 28 40.3H22.7Z" fill="#6A4B9F"/>
<path d="M38.5 42.6999C36.9 42.9999 35.6 43.7999 34.6 44.9999C33.6 46.1999 33.1 47.5999 33 49.2999C33 50.4999 33.3 51.4999 33.8 52.4999C34.3 53.4999 35.1 54.2999 36.1 54.8999C36.2 54.9999 36.4 55.0999 36.6 55.0999C37 55.0999 37.3 54.9999 37.5 54.6999C37.6 54.3999 37.6 54.1999 37.6 53.8999C37.5 53.6999 37.4 53.3999 37.2 53.2999C36.5 52.8999 36 52.2999 35.6 51.5999C35.2 50.8999 35 50.0999 35 49.2999C35 48.0999 35.4 47.0999 36.1 46.2999C36.8 45.4999 37.7 44.8999 38.9 44.5999C39.2 44.5999 39.4 44.3999 39.5 44.1999C39.6 43.9999 39.7 43.7999 39.7 43.4999C39.7 43.1999 39.5 42.9999 39.3 42.8999C39 42.5999 38.8 42.5999 38.5 42.6999Z" fill="#6A4B9F"/>
<path d="M22.7 30.4C23.2 30.4 25.4 30.4 29.3 30.4H36C36.3 30.4 36.5 30.3 36.7 30.1C36.9 29.9 37 29.7 37 29.4C37 29.1 36.9 28.9 36.7 28.7C36.5 28.5 36.3 28.4 36 28.4H22.7C22.4 28.4 22.2 28.5 22 28.7C21.8 28.9 21.7 29.1 21.7 29.4C21.7 29.7 21.8 29.9 22 30.1C22.1 30.3 22.4 30.4 22.7 30.4Z" fill="#6A4B9F"/>
</g>
<defs>
<clipPath id="clip0">
<rect x="14" y="11" width="40.9" height="57.3" fill="white"/>
</clipPath>
</defs>
</svg>
