<svg width="69" height="77" viewBox="0 0 69 77" fill="none" xmlns="http://www.w3.org/2000/svg">
<g clip-path="url(#clip0)">
<path d="M34.6 61.1C33.8 61.1 30.6 61.1 25 61.1H15.5C15.1 61.1 14.7 61 14.4 60.7C14.1 60.4 13.9 60 13.9 59.6V12.6C13.9 12.2 14.1 11.8 14.4 11.5C14.7 11.2 15.1 11 15.5 11H37.5V20.7C37.5 21.3 37.7 21.8 38.1 22.2C38.5 22.6 39 22.8 39.6 22.8H50.5V45.6C50.5 45.9 50.6 46.1 50.8 46.3C51 46.5 51.2 46.6 51.5 46.6C51.8 46.6 52 46.5 52.2 46.3C52.4 46.1 52.5 45.9 52.5 45.6V22.5C52.5 21.7 52.3 21 51.7 20.5L41.1 9.8C40.5 9.3 39.9 9 39.1 9H15.5C14.5 9 13.6 9.4 13 10C12.3 10.7 12 11.5 12 12.5V59.4C12 60.4 12.3 61.2 13 61.9C13.7 62.6 14.5 62.9 15.5 62.9H34.6C34.9 62.9 35.1 62.8 35.3 62.6C35.5 62.4 35.6 62.2 35.6 61.9C35.6 61.4 35.2 61.1 34.6 61.1ZM39.5 11.1L39.7 11.3L49.3 20.9C48.9 20.9 47.3 20.9 44.5 20.9H39.7C39.6 20.9 39.5 20.8 39.5 20.7V11.1Z" fill="#6A4B9F"/>
<path d="M58.5 50.7001C58.3 50.1 57.9 49.8001 57.4 49.7001L50 48.9001L46.9 42.1C46.8 41.9 46.7 41.7 46.4 41.5C46.2 41.4 45.9 41.3 45.6 41.3C45.1 41.3 44.7 41.6 44.4 42.1L41.3 48.9001L34 49.7001C33.4 49.8001 33.1 50.1 32.9 50.6C32.8 51.1 32.9 51.6 33.2 52L38.7 57L37.2 64.3C37.1 64.9 37.3 65.3 37.7 65.6C38.2 65.9 38.6 66 39.1 65.7001L45.6 62L49.3 64.1C49.5 64.2 49.8 64.2001 50 64.2001C50.2 64.1 50.4 64 50.6 63.8C50.7 63.6 50.8 63.3 50.7 63.1C50.6 62.8 50.5 62.6 50.3 62.5L46.3 60.2001C45.9 59.9001 45.4 59.9001 45 60.2001L39.4 63.4001L40.7 57.1C40.8 56.6 40.7 56.2 40.3 55.8L35.5 51.4001L41.9 50.7001C42.4 50.6 42.8 50.4001 43 49.9001L45.7 44L48.3 49.9001C48.5 50.3001 48.9 50.6 49.4 50.7001L55.8 51.4001L51 55.8C50.7 56.1 50.5 56.5 50.6 57L52.4 65.4001C52.4 65.6001 52.5 65.8 52.7 66C52.9 66.1 53.1 66.2001 53.3 66.2001H53.5C53.8 66.1 54 66 54.1 65.8C54.2 65.6 54.3 65.3 54.3 65.1L52.8 57L58.3 52C58.4 51.9 58.4 51.7001 58.5 51.4001C58.6 51.1001 58.6 50.9001 58.5 50.7001Z" fill="#6A4B9F"/>
<path d="M20.7 38.4C20.4 38.4 20.2 38.5 20 38.7C19.8 38.9 19.7 39.1 19.7 39.4C19.7 39.7 19.8 39.9 20 40.1C20.2 40.3 20.4 40.4 20.7 40.4H37.3C37.6 40.4 37.8 40.3 38 40.1C38.2 39.9 38.3 39.7 38.3 39.4C38.3 39.1 38.2 38.9 38 38.7C37.8 38.5 37.6 38.4 37.3 38.4H20.7Z" fill="#6A4B9F"/>
<path d="M43.7 34.2C43.9 34 44 33.8 44 33.5C44 33.2 43.9 33 43.7 32.8C43.5 32.6 43.3 32.5 43 32.5H20.7C20.4 32.5 20.2 32.6 20 32.8C19.8 33 19.7 33.2 19.7 33.5C19.7 33.8 19.8 34 20 34.2C20.2 34.4 20.4 34.5 20.7 34.5H43C43.2 34.5 43.5 34.4 43.7 34.2Z" fill="#6A4B9F"/>
<path d="M27.4 28.5H34C34.3 28.5 34.5 28.4 34.7 28.2C34.9 28 35 27.8 35 27.5C35 27.2 34.9 27 34.7 26.8C34.5 26.6 34.3 26.5 34 26.5H20.7C20.4 26.5 20.2 26.6 20 26.8C19.8 27 19.7 27.2 19.7 27.5C19.7 27.8 19.8 28 20 28.2C20.2 28.4 20.4 28.5 20.7 28.5C21.2 28.5 23.5 28.5 27.4 28.5Z" fill="#6A4B9F"/>
</g>
<defs>
<clipPath id="clip0">
<rect x="12" y="9" width="46.6" height="57.3" fill="white"/>
</clipPath>
</defs>
</svg>
