<svg width="27" height="32" viewBox="0 0 27 32" fill="none" xmlns="http://www.w3.org/2000/svg">
<path d="M24 10V4.7C24 4.3 23.9 4 23.6 3.7C23.3 3.4 23 3.3 22.6 3.3H4C3.6 3.3 3.3 3.4 3 3.7C2.8 4 2.6 4.3 2.6 4.7V10C2.6 10.4 2.7 10.7 3 10.9C3.3 11.2 3.6 11.3 4 11.3H22.6C23 11.3 23.3 11.2 23.6 10.9C23.9 10.6 24 10.4 24 10ZM24 16V15.3C24 14.9 23.9 14.6 23.6 14.3C23.3 14 23 13.9 22.6 13.9H19.9C19.5 13.9 19.2 14 19 14.3C18.7 14.6 18.6 14.9 18.6 15.3V16C18.6 16.4 18.7 16.7 19 16.9C19.3 17.2 19.6 17.3 19.9 17.3H22.6C23 17.3 23.3 17.2 23.6 16.9C23.9 16.7 24 16.4 24 16ZM24 21.4V20.7C24 20.3 23.9 20 23.6 19.7C23.3 19.4 23 19.3 22.6 19.3H19.9C19.5 19.3 19.2 19.4 19 19.7C18.7 20 18.6 20.3 18.6 20.7V26.7C18.6 27.1 18.7 27.4 19 27.6C19.3 27.9 19.6 28 19.9 28H22.6C23 28 23.3 27.9 23.6 27.6C23.9 27.3 24 27 24 26.7V21.4ZM16 16V15.3C16 14.9 15.9 14.6 15.6 14.3C15.3 14 15 13.9 14.6 13.9H12C11.6 13.9 11.3 14 11 14.3C10.7 14.6 10.6 14.9 10.6 15.3V16C10.6 16.4 10.7 16.7 11 16.9C11.3 17.2 11.6 17.3 12 17.3H14.6C15 17.3 15.3 17.2 15.6 16.9C15.9 16.7 16 16.4 16 16ZM16 21.4V20.7C16 20.3 15.9 20 15.6 19.7C15.3 19.4 15 19.3 14.6 19.3H12C11.6 19.3 11.3 19.4 11 19.7C10.7 20 10.6 20.3 10.6 20.7V21.4C10.6 21.8 10.7 22.1 11 22.3C11.3 22.6 11.6 22.7 12 22.7H14.6C15 22.7 15.3 22.6 15.6 22.3C15.9 22 16 21.7 16 21.4ZM16 26.7V26C16 25.6 15.9 25.3 15.6 25C15.3 24.7 15 24.6 14.6 24.6H12C11.6 24.6 11.3 24.7 11 25C10.7 25.3 10.6 25.6 10.6 26V26.7C10.6 27.1 10.7 27.4 11 27.6C11.3 27.8 11.6 28 12 28H14.6C15 28 15.3 27.9 15.6 27.6C15.9 27.3 16 27 16 26.7ZM8 16V15.3C8 14.9 7.9 14.6 7.6 14.3C7.3 14.1 7 14 6.7 14H4C3.6 14 3.3 14.1 3 14.4C2.7 14.7 2.6 15 2.6 15.4V16C2.6 16.4 2.7 16.7 3 16.9C3.3 17.2 3.6 17.3 4 17.3H6.7C7.1 17.3 7.4 17.2 7.6 16.9C7.8 16.7 8 16.4 8 16ZM8 21.4V20.7C8 20.3 7.9 20 7.6 19.7C7.3 19.4 7 19.3 6.7 19.3H4C3.6 19.3 3.3 19.4 3 19.7C2.7 20 2.6 20.3 2.6 20.7V21.4C2.6 21.8 2.7 22.1 3 22.3C3.3 22.6 3.6 22.7 4 22.7H6.7C7.1 22.7 7.4 22.6 7.6 22.3C7.8 22 8 21.7 8 21.4ZM8 26.7V26C8 25.6 7.9 25.3 7.6 25C7.3 24.7 7 24.6 6.7 24.6H4C3.6 24.6 3.3 24.7 3 25C2.7 25.3 2.6 25.6 2.6 26V26.7C2.6 27.1 2.7 27.4 3 27.6C3.3 27.8 3.6 28 4 28H6.7C7.1 28 7.4 27.9 7.6 27.6C7.8 27.3 8 27 8 26.7ZM25.9 0.8C26.4 1.3 26.7 1.9 26.7 2.7V29.4C26.7 30.1 26.4 30.8 25.9 31.3C25.4 31.8 24.8 32 24 32H2.6C1.9 32 1.2 31.7 0.7 31.2C0.3 30.8 0 30.1 0 29.4V2.7C0 2 0.3 1.3 0.8 0.8C1.3 0.3 1.9 0 2.6 0H24C24.8 0 25.4 0.3 25.9 0.8Z" fill="white"/>
</svg>
