<svg width="69" height="77" viewBox="0 0 69 77" fill="none" xmlns="http://www.w3.org/2000/svg">
<g clip-path="url(#clip0)">
<path d="M32.4 52.9C31.3 52.9 30.4 53.3 29.7 54C29 54.7 28.6 55.6 28.6 56.7C28.6 57.8 29 58.7 29.7 59.4C30.4 60.1 31.3 60.5 32.4 60.5C33.5 60.5 34.4 60.1 35.1 59.4C35.8 58.7 36.2 57.8 36.2 56.7C36.2 55.6 35.8 54.7 35.1 54C34.4 53.4 33.5 53 32.4 52.9ZM33.6 58C33.3 58.3 32.9 58.5 32.4 58.5C31.9 58.5 31.5 58.3 31.2 58C30.9 57.7 30.7 57.3 30.7 56.8C30.7 56.3 30.9 55.9 31.2 55.6C31.5 55.3 31.9 55.1 32.4 55.1C32.9 55.1 33.3 55.3 33.6 55.6C33.9 55.9 34.1 56.3 34.1 56.8C34.1 57.3 34 57.7 33.6 58Z" fill="#6A4B9F"/>
<path d="M33.5 45.9C33.8 46 34 46 34.2 45.9C34.5 45.8 34.7 45.6 34.8 45.3C34.9 45 34.9 44.8 34.8 44.5L26.5 25.5L36.3 21.2L38.5 26.3C38.7 26.7 39 26.9 39.5 26.9C39.6 26.9 39.7 26.9 39.9 26.8C40.2 26.7 40.3 26.5 40.5 26.2C40.6 25.9 40.6 25.7 40.5 25.4L38.3 20.3L49.5 15.5L59.6 38.2L48.6 42.8L46.3 37.5C46.2 37.2 46 37 45.7 36.9C45.4 36.8 45.2 36.8 44.9 36.9C44.6 37 44.4 37.2 44.3 37.5C44.2 37.8 44.2 38 44.3 38.3L46.5 43.6L40.6 46C40.3 46.1 40.2 46.3 40.1 46.6C40 46.9 40 47.1 40.1 47.4C40.2 47.8 40.6 48 41.1 48C41.2 48 41.4 48 41.5 47.9L62.3 39.2L50.6 13L23.8 24.4L33 45.3C33.1 45.6 33.2 45.8 33.5 45.9Z" fill="#6A4B9F"/>
<path d="M60.6 45.7C60.3 45.6 60.1 45.6 59.9 45.7C59.1 46 55.9 47.4 50.2 49.7L40.5 53.7C39.9 52 38.8 50.7 37.4 49.7C36 48.7 34.3 48.2 32.4 48.2C31.4 48.2 30.4 48.3 29.5 48.6L14.8 15.6L6.3 13.4C6 13.4 5.7 13.4 5.5 13.5C5.3 13.6 5.1 13.9 5 14.2C5 14.5 5 14.8 5.1 15C5.2 15.2 5.5 15.4 5.7 15.4L13.3 17.4L27.6 49.6C26.4 50.4 25.5 51.4 24.7 52.6C24 53.8 23.6 55.2 23.6 56.8C23.7 59.2 24.5 61.3 26.1 62.9C27.7 64.5 29.8 65.4 32.2 65.4C34.7 65.4 36.7 64.5 38.3 62.9C39.9 61.3 40.8 59.2 40.8 56.8C40.8 56.4 40.8 56.1 40.7 55.7L60.3 47.6C60.6 47.5 60.8 47.3 60.9 47C61 46.7 61 46.5 60.9 46.2C61 46 60.8 45.8 60.6 45.7ZM37 61.4C35.8 62.6 34.2 63.3 32.4 63.3C30.5 63.3 29 62.6 27.8 61.4C26.6 60.2 25.9 58.6 25.8 56.8C25.9 54.9 26.5 53.4 27.8 52.1C29 50.9 30.6 50.2 32.4 50.2C34.3 50.2 35.8 50.9 37 52.1C38.2 53.3 38.9 54.9 39 56.8C38.9 58.6 38.3 60.2 37 61.4Z" fill="#6A4B9F"/>
</g>
<defs>
<clipPath id="clip0">
<rect x="5" y="13" width="57.3" height="52.4" fill="white"/>
</clipPath>
</defs>
</svg>
