<svg width="69" height="77" viewBox="0 0 69 77" fill="none" xmlns="http://www.w3.org/2000/svg">
<g clip-path="url(#clip0)">
<path d="M47 65.5C50.1 65.4001 52.8 64.3 54.9 62.2001C57 60.1001 58.1 57.5 58.2 54.3C58.1 51.2001 57 48.5 55 46.4001C52.9 44.3001 50.3 43.2 47.1 43.1C43.9 43.2 41.3 44.3001 39.2 46.4001C37.1 48.5 36 51.1 36 54.3C36.1 57.4 37.2 60.1001 39.3 62.2001C41.3 64.3 43.9 65.4001 47 65.5ZM47 42.1C50.4 42.2 53.3 43.4001 55.6 45.7001C57.9 48 59.1 50.9 59.2 54.3C59.1 57.7001 57.9 60.6001 55.6 62.9001C53.3 65.2001 50.4 66.4001 47 66.5C43.5 66.4001 40.7 65.2001 38.4 62.9001C36.1 60.6001 34.9 57.7001 34.8 54.3C34.9 50.9 36.1 48 38.4 45.7001C40.7 43.4001 43.6 42.2 47 42.1ZM38.6 25.1C38.8 25.2 39 25.3 39.3 25.3H53L38.6 11L38.4 24.4C38.4 24.7 38.5 24.9 38.6 25.1ZM15.3 62.7001C15.3 62.9001 15.4 63.1001 15.5 63.2001C15.6 63.4001 15.8 63.5 16.1 63.5H36.2V64.6H16.1C15.5 64.6 15.1 64.4 14.8 64.1C14.5 63.7 14.3 63.3 14.3 62.8V11.1C14.3 10.5 14.5 10.1 14.8 9.80005C15.2 9.50005 15.6 9.30005 16.1 9.30005H38.4L54.8 25.7001V41.6H53.8V26.4H39.3C38.8 26.4 38.3 26.2 37.9 25.8C37.5 25.4 37.3 24.9 37.3 24.4L37.5 10.2H16.1C15.9 10.2 15.7 10.3 15.5 10.4C15.4 10.6 15.3 10.8 15.3 11V36.8V62.7001ZM35.1 38.2001C34.4 38.2001 33.9 38.4 33.5 38.9C33.1 39.3 32.9 39.9 32.9 40.5C32.9 41.1 33.1 41.7 33.5 42.1C33.9 42.5 34.5 42.8 35.1 42.8C35.8 42.8 36.3 42.6 36.7 42.1C37.1 41.7 37.3 41.1 37.3 40.5C37.3 39.9 37.1 39.3 36.7 38.9C36.2 38.4 35.7 38.2001 35.1 38.2001ZM35.1 43.9001C34.1 43.9001 33.3 43.5 32.7 42.9001C32.1 42.3001 31.7 41.5 31.7 40.6C31.7 39.7001 32 38.9001 32.7 38.2001C33.3 37.6 34.1 37.2001 35.1 37.2001C36.1 37.2001 36.8 37.5 37.5 38.2001C38.1 38.8001 38.5 39.6 38.5 40.6C38.5 41.6001 38.2 42.3001 37.5 42.9001C36.8 43.5 36 43.8001 35.1 43.9001ZM25.8 34.7001C26.4 34.7001 27 34.4 27.4 34C27.8 33.6 28.1 33 28.1 32.4C28.1 31.7 27.9 31.2 27.5 30.8C27.1 30.4 26.5 30.2001 25.9 30.2001C25.2 30.2001 24.7 30.4 24.2 30.8C23.8 31.2 23.5 31.8 23.5 32.4C23.5 33.1 23.7 33.6 24.2 34C24.6 34.4 25.1 34.7001 25.8 34.7001ZM29.1 32.4C29.1 33.3 28.7 34.1 28.1 34.7001C27.5 35.3001 26.7 35.7001 25.8 35.7001C24.9 35.7001 24.1 35.4001 23.4 34.7001C22.8 34.1 22.4 33.3 22.4 32.3C22.4 31.3 22.7 30.6 23.4 29.9C24 29.3 24.8 28.9 25.7 28.9C26.6 28.9 27.4 29.2 28 29.9C28.8 30.6 29.1 31.4 29.1 32.4ZM23.7 43.2001L24.5 43.9001L36.7 29.9L36 29.2001L29.9 36.2001C26.3 40.3001 24.2 42.6001 23.7 43.2001ZM47 54.4001C48.1 54.5 49 54.7001 49.8 55C50.6 55.3 51 56 51 57C51 57.6 50.7 58.1 50.2 58.6C49.6 59.1 48.7 59.3001 47.5 59.4001H47.4V61.6H46.4V59.3C45.6 59.2001 44.9 58.9001 44.4 58.7001C43.9 58.4001 43.6 58.3 43.6 58.3L44.2 57.4001C44.2 57.4001 44.5 57.6001 45.2 57.9001C45.9 58.2001 46.7 58.4001 47.5 58.4001C47.9 58.4001 48.4 58.4001 49 58.2001C49.6 58 50 57.7 50 57.1C50 56.6 49.8 56.3 49.4 56.1C49 55.9 48.1 55.7 46.9 55.6C44.4 55.2 43.2 54.4 43.2 53.1C43.2 52.4 43.4 51.8 43.9 51.3C44.5 50.7001 45.4 50.3 46.5 50.3V48.5H47.5V50.4001C48.5 50.5 49.3 50.8 49.8 51.1C50.3 51.4 50.6 51.6 50.6 51.6L49.9 52.4001C49.9 52.4001 49.6 52.2001 49 51.9001C48.4 51.6001 47.6 51.4001 46.6 51.4001C45.6 51.4001 45 51.6 44.6 52C44.3 52.3 44.2 52.7 44.2 53.1C44.2 53.5 44.6 53.8 45.2 54.1C45.7 54.2 46.3 54.4001 47 54.4001Z" fill="#6A4B9F"/>
<path d="M47 65.5C50.1 65.4 52.8 64.3001 54.9 62.2001C57 60.1001 58.1 57.5 58.2 54.3C58.1 51.2 57 48.5001 55 46.4001C52.9 44.3001 50.3 43.2 47.1 43.1C43.9 43.2 41.3 44.3001 39.2 46.4001C37.1 48.5001 36 51.1 36 54.3C36.1 57.4 37.2 60.1001 39.3 62.2001C41.3 64.3001 43.9 65.4 47 65.5ZM47 42.1C50.4 42.2 53.3 43.4001 55.6 45.7001C57.9 48.0001 59.1 50.9 59.2 54.3C59.1 57.7 57.9 60.6001 55.6 62.9001C53.3 65.2001 50.4 66.4 47 66.5C43.5 66.4 40.7 65.2001 38.4 62.9001C36.1 60.6001 34.9 57.7 34.8 54.3C34.9 50.9 36.1 48.0001 38.4 45.7001C40.7 43.4001 43.6 42.2 47 42.1ZM38.6 25.1C38.8 25.2 39 25.3 39.3 25.3H53L38.6 11L38.4 24.4C38.4 24.7 38.5 24.9 38.6 25.1ZM15.3 62.7001C15.3 62.9001 15.4 63.1001 15.5 63.2001C15.6 63.4001 15.8 63.5 16.1 63.5H36.2V64.6H16.1C15.5 64.6 15.1 64.4 14.8 64.1C14.5 63.7 14.3 63.3 14.3 62.8V11.1C14.3 10.5 14.5 10.1 14.8 9.80005C15.2 9.50005 15.6 9.30005 16.1 9.30005H38.4L54.8 25.7001V41.6H53.8V26.4H39.3C38.8 26.4 38.3 26.2 37.9 25.8C37.5 25.4 37.3 24.9 37.3 24.4L37.5 10.2H16.1C15.9 10.2 15.7 10.3 15.5 10.4C15.4 10.6 15.3 10.8 15.3 11V36.8V62.7001ZM35.1 38.2001C34.4 38.2001 33.9 38.4 33.5 38.9C33.1 39.3 32.9 39.9 32.9 40.5C32.9 41.1 33.1 41.7 33.5 42.1C33.9 42.5 34.5 42.8 35.1 42.8C35.8 42.8 36.3 42.6 36.7 42.1C37.1 41.7 37.3 41.1 37.3 40.5C37.3 39.9 37.1 39.3 36.7 38.9C36.2 38.4 35.7 38.2001 35.1 38.2001ZM35.1 43.9001C34.1 43.9001 33.3 43.5001 32.7 42.9001C32.1 42.3001 31.7 41.5 31.7 40.6C31.7 39.7 32 38.9001 32.7 38.2001C33.3 37.6001 34.1 37.2001 35.1 37.2001C36.1 37.2001 36.8 37.5001 37.5 38.2001C38.1 38.8001 38.5 39.6 38.5 40.6C38.5 41.6 38.2 42.3001 37.5 42.9001C36.8 43.5001 36 43.8001 35.1 43.9001ZM25.8 34.7001C26.4 34.7001 27 34.4 27.4 34C27.8 33.6 28.1 33 28.1 32.4C28.1 31.7 27.9 31.2 27.5 30.8C27.1 30.4 26.5 30.2001 25.9 30.2001C25.2 30.2001 24.7 30.4 24.2 30.8C23.8 31.2 23.5 31.8 23.5 32.4C23.5 33.1 23.7 33.6 24.2 34C24.6 34.4 25.1 34.7001 25.8 34.7001ZM29.1 32.4C29.1 33.3 28.7 34.1001 28.1 34.7001C27.5 35.3001 26.7 35.7001 25.8 35.7001C24.9 35.7001 24.1 35.4001 23.4 34.7001C22.8 34.1001 22.4 33.3 22.4 32.3C22.4 31.3 22.7 30.6 23.4 29.9C24 29.3 24.8 28.9 25.7 28.9C26.6 28.9 27.4 29.2 28 29.9C28.8 30.6 29.1 31.4 29.1 32.4ZM23.7 43.2001L24.5 43.9001L36.7 29.9L36 29.2001L29.9 36.2001C26.3 40.3001 24.2 42.6001 23.7 43.2001ZM47 54.4001C48.1 54.5001 49 54.7 49.8 55C50.6 55.3 51 56 51 57C51 57.6 50.7 58.1 50.2 58.6C49.6 59.1 48.7 59.3001 47.5 59.4001H47.4V61.6H46.4V59.3C45.6 59.2 44.9 58.9001 44.4 58.7001C43.9 58.4001 43.6 58.3 43.6 58.3L44.2 57.4001C44.2 57.4001 44.5 57.6001 45.2 57.9001C45.9 58.2001 46.7 58.4001 47.5 58.4001C47.9 58.4001 48.4 58.4001 49 58.2001C49.6 58.0001 50 57.7 50 57.1C50 56.6 49.8 56.3 49.4 56.1C49 55.9 48.1 55.7 46.9 55.6C44.4 55.2 43.2 54.4 43.2 53.1C43.2 52.4 43.4 51.8 43.9 51.3C44.5 50.7 45.4 50.3 46.5 50.3V48.5H47.5V50.4001C48.5 50.5001 49.3 50.8 49.8 51.1C50.3 51.4 50.6 51.6 50.6 51.6L49.9 52.4001C49.9 52.4001 49.6 52.2001 49 51.9001C48.4 51.6001 47.6 51.4001 46.6 51.4001C45.6 51.4001 45 51.6 44.6 52C44.3 52.3 44.2 52.7 44.2 53.1C44.2 53.5 44.6 53.8 45.2 54.1C45.7 54.2 46.3 54.4001 47 54.4001Z" stroke="#6A4B9F" stroke-width="0.5" stroke-miterlimit="4.773"/>
</g>
<defs>
<clipPath id="clip0">
<rect x="14" y="9" width="45.5" height="57.8" fill="white"/>
</clipPath>
</defs>
</svg>
