<svg width="69" height="77" viewBox="0 0 69 77" fill="none" xmlns="http://www.w3.org/2000/svg">
<g clip-path="url(#clip0)">
<path d="M58.4 25.4C55.9 22.9 52.8 21.6 49.1 21.5C46.5 21.5 44.1 22.2 42 23.6L30.5 13L24.1 18.9V18.4C24.1 17.6 23.8 17 23.3 16.4C22.8 15.9 22.1 15.6 21.3 15.6H17.2C16.4 15.6 15.7 15.9 15.2 16.4C14.7 16.9 14.4 17.6 14.4 18.4V28L5.2 36.4C5.1 36.6 5 36.8 5 37C5 37.2 5.1 37.5 5.3 37.6C5.5 37.7 5.7 37.9 5.9 37.9C6.1 37.9 6.4 37.8 6.5 37.7L30.5 15.4L40.3 24.5C38.8 25.7 37.7 27.2 36.8 29C35.9 30.8 35.5 32.7 35.5 34.8C35.6 38.2 36.7 41.1 38.7 43.5C40.8 45.9 43.5 47.4 46.7 47.9V57.9C46.7 58.7 46.4 59.4 45.8 60C45.3 60.6 44.6 60.8 43.8 60.8H30.1V43.2H18.6V60.8H17C16.2 60.8 15.5 60.5 15 60C14.4 59.5 14.2 58.8 14.2 57.9V34.9C14.2 34.6 14.1 34.4 13.9 34.3C13.7 34.1 13.5 34 13.2 34C12.9 34 12.8 34.1 12.6 34.3C12.5 34.5 12.4 34.7 12.3 34.9V57.9C12.3 59.2 12.8 60.4 13.7 61.3C14.6 62.2 15.7 62.6 17.1 62.6H20.5V45H28.3V62.6H44C45.3 62.6 46.5 62.2 47.3 61.3C48.2 60.4 48.6 59.3 48.7 57.9V48.1H49C52.8 48 55.9 46.7 58.4 44.2C60.9 41.7 62.2 38.6 62.3 34.8C62.2 31 60.9 27.9 58.4 25.4ZM22.3 20.6L16.2 26.2V18.3H16.3C16.3 18 16.4 17.8 16.6 17.6C16.8 17.4 17 17.3 17.3 17.3H21.4C21.7 17.3 21.9 17.4 22.1 17.6C22.3 17.8 22.4 18 22.4 18.3V20.6H22.3ZM57.1 42.9C54.9 45.1 52.3 46.2 49 46.3C45.7 46.2 43 45.1 40.9 42.9C38.8 40.7 37.6 38 37.5 34.8C37.6 31.6 38.7 28.9 40.9 26.7C43 24.5 45.8 23.4 49 23.3C52.2 23.4 54.9 24.5 57.1 26.7C59.2 28.9 60.4 31.6 60.5 34.8C60.4 38 59.2 40.7 57.1 42.9Z" fill="#6A4B9F"/>
<path d="M58.9 37C58.8 36.9 58.5 36.5 57.9 35.7L56.9 34.4C56.7 34.2 56.5 34.1 56.2 34C55.9 33.9 55.7 34 55.4 34.1L52.4 35.8C52.2 35.9 52 36.1 52 36.4C52 36.6 52 36.9 52.1 37.1C52.2 37.3 52.4 37.5 52.6 37.5C52.8 37.5 53.1 37.5 53.3 37.4L54.7 36.6C54.5 37.5 54.1 38.2 53.5 38.9C52.9 39.6 52.2 40.1 51.4 40.5C50.7 40.8 49.9 41 49.1 41.1C48.3 41.1 47.5 41 46.8 40.7C45.2 40.1 44.1 39 43.4 37.5C43.3 37.4 43.3 37.3 43.3 37.2C43.2 36.9 43 36.8 42.8 36.7C42.6 36.6 42.4 36.6 42.1 36.7C41.9 36.8 41.7 37 41.6 37.2C41.5 37.4 41.5 37.6 41.6 37.9L41.8 38.3C42.2 39.3 42.8 40.1 43.6 40.8C44.3 41.5 45.2 42 46.2 42.4C47.2 42.8 48.1 42.9 49.1 42.9C50.2 42.9 51.3 42.7 52.3 42.2C53.3 41.7 54.3 41 55 40.1C55.8 39.2 56.3 38.2 56.6 37L57.4 38.1C57.6 38.4 57.8 38.5 58.1 38.5C58.3 38.5 58.5 38.4 58.6 38.3C58.8 38.2 58.9 38 58.9 37.8C58.9 37.6 59.1 37.2 58.9 37Z" fill="#6A4B9F"/>
<path d="M42.5 33.5C42.6 33.5 42.7 33.5 42.8 33.4L46.2 32.6C46.4 32.5 46.6 32.4 46.7 32.2C46.8 32 46.9 31.8 46.8 31.5C46.7 31.3 46.6 31.1 46.4 30.9C46.2 30.8 46 30.7 45.7 30.8L44.2 31.1C44.8 30.3 45.6 29.7 46.5 29.4C47.8 28.8 49.1 28.7 50.4 29C51.7 29.3 52.8 30 53.8 31C53.9 31.2 54.1 31.3 54.4 31.3C54.6 31.3 54.9 31.3 55 31.1C55.2 31 55.3 30.8 55.3 30.5C55.3 30.3 55.3 30 55.1 29.9C53.9 28.5 52.5 27.6 50.8 27.2C49.1 26.8 47.4 27 45.8 27.7C44.5 28.3 43.4 29.2 42.6 30.4L42.2 29.3C42.1 29 42 28.9 41.8 28.8C41.6 28.7 41.3 28.7 41.1 28.8C40.9 28.9 40.7 29.1 40.6 29.3C40.5 29.5 40.5 29.8 40.6 30L41.7 32.7C41.7 33.3 42 33.5 42.5 33.5Z" fill="#6A4B9F"/>
</g>
<defs>
<clipPath id="clip0">
<rect x="5" y="13" width="57.3" height="49.6" fill="white"/>
</clipPath>
</defs>
</svg>
